inDegrees=no
num_controls=7
num_derivatives=13
num_iterations=155
num_multipliers=7
num_parameters=0
num_slacks=7
num_states=26
objective=5.732030
objective_accelerations=0.475250
objective_balance=0.049007
objective_effort=0.452461
objective_height=4.707547
objective_ligament=0.047765
solver_duration=1603.086174
status=Solve_Succeeded
success=true
DataType=double
version=3
OpenSimVersion=4.4-2022-07-23-0e9fedc
endheader
time	/jointset/ground_pelvis/pelvis_tilt/value	/jointset/ground_pelvis/pelvis_tx/value	/jointset/ground_pelvis/pelvis_ty/value	/jointset/hip_l/hip_flexion_l/value	/jointset/hip_l/hip_adduction_l/value	/jointset/hip_l/hip_rotation_l/value	/jointset/back/lumbar_extension/value	/jointset/patellofemoral_l/patellar_flexion_l/value	/jointset/knee_l/knee_flexion_l/value	/jointset/knee_l/knee_adduction_l/value	/jointset/knee_l/knee_rotation_l/value	/jointset/ankle_l/ankle_angle_l/value	/jointset/subtalar_l/subtalar_angle_l/value	/jointset/ground_pelvis/pelvis_tilt/speed	/jointset/ground_pelvis/pelvis_tx/speed	/jointset/ground_pelvis/pelvis_ty/speed	/jointset/hip_l/hip_flexion_l/speed	/jointset/hip_l/hip_adduction_l/speed	/jointset/hip_l/hip_rotation_l/speed	/jointset/back/lumbar_extension/speed	/jointset/patellofemoral_l/patellar_flexion_l/speed	/jointset/knee_l/knee_flexion_l/speed	/jointset/knee_l/knee_adduction_l/speed	/jointset/knee_l/knee_rotation_l/speed	/jointset/ankle_l/ankle_angle_l/speed	/jointset/subtalar_l/subtalar_angle_l/speed	/forceset/tau_hip_flexion_l	/forceset/tau_hip_adduction_l	/forceset/tau_hip_rotation_l	/forceset/tau_knee_flexion_l	/forceset/tau_ankle_angle_l	/forceset/tau_subtalar_angle_l	/forceset/tau_lumbar_extension	lambda_cid13_p0	lambda_cid13_p1	lambda_cid13_p2	lambda_cid13_p3	lambda_cid13_p4	lambda_cid13_p5	lambda_cid14_p0	/jointset/ground_pelvis/pelvis_tilt/accel	/jointset/ground_pelvis/pelvis_tx/accel	/jointset/ground_pelvis/pelvis_ty/accel	/jointset/hip_l/hip_flexion_l/accel	/jointset/hip_l/hip_adduction_l/accel	/jointset/hip_l/hip_rotation_l/accel	/jointset/back/lumbar_extension/accel	/jointset/patellofemoral_l/patellar_flexion_l/accel	/jointset/knee_l/knee_flexion_l/accel	/jointset/knee_l/knee_adduction_l/accel	/jointset/knee_l/knee_rotation_l/accel	/jointset/ankle_l/ankle_angle_l/accel	/jointset/subtalar_l/subtalar_angle_l/accel	gamma_cid13_p0	gamma_cid13_p1	gamma_cid13_p2	gamma_cid13_p3	gamma_cid13_p4	gamma_cid13_p5	gamma_cid14_p0
0	-0.03682271014046846	0.05667758013259532	0.9203415909998993	0.3085811930696054	-0.2956404632569783	-0.3016072156220825	-0.3879500408040475	0.2499276582270734	0.249927658227084	-0.1745329102685707	-0.1745329074664773	-0.0008036543073733089	0.0004376163075786062	0	0	0	0	0	0	0	0	0	0	0	0	0	0.07171172226143924	-0.0481681406407635	-0.02104921915873012	-0.2523657258110315	0.2085347349914768	-0.01768604506563095	0.006059502697031276	23.23502190889304	1.147299981919233	2.178936075336415	2.969447522112385	-627.2284564298699	-72.59612658267231	-23.19692434037876	-0.7985597477626444	-1.811517829220718	-0.8412616635772066	8.341789355012862	-0.8584471015357814	3.13272055796932	-7.037291531926269	8.702713666262467	8.702713666262333	1.014590948631645	-0.05500767998924363	1.609453915443427	-0.3713365529751265	-4.248719936059132e-09	1.279239066891991e-07	7.235927026278604e-08	-1.057121645395812e-08	1.050198802572014e-07	-6.122521229453532e-09	-9.438610596212781e-10
0.01	-0.03685921121841865	0.05658874989359757	0.9203005254928959	0.3089870256303944	-0.2956833612340206	-0.301450073831631	-0.38829965613201	0.2503540007562265	0.2503540007562574	-0.1744852664548829	-0.1745324452470222	-0.000724607809988577	0.0004185748711038134	-0.007255438414801908	-0.01760876935284494	-0.008173717920622584	0.08068735123275962	-0.008524133813812179	0.0312692143014018	-0.06937990439784865	0.08487202546458959	0.08487202546458947	0.009503307358216376	9.128423392973083e-05	0.01583769401276348	-0.003739652230773794	0.06641353125489698	-0.05957110787043774	-0.0204171258974437	-0.2490975313061435	0.2022384177239976	-0.003808548851790427	0.01143405148203716	21.62337559775235	-4.497876098580106	2.965126629728379	1.875710952048145	-630.1910102528941	-84.0342145758847	-23.20185692484563	-0.6823277274726027	-1.711966834482835	-0.7994983303183799	7.860327435843558	-0.8411084157259046	3.100145860179158	-6.806865715208705	8.319975119999789	8.319975119999894	0.9144115126966494	0.04103064172948302	1.575189352248436	-0.3650130872452658	-3.325909535057496e-08	1.239261654546592e-07	1.339938130129392e-07	1.807928876943945e-08	-7.802480178656811e-09	-4.808906436047034e-08	-8.65646493404606e-09
0.02	-0.03696692504832522	0.0563285498918393	0.9201789085118834	0.3101853555891996	-0.295809842928083	-0.3009850150993716	-0.3893267756682479	0.2516171691667329	0.2516171691667301	-0.1743433473908911	-0.1745311033519504	-0.0004863319308641797	0.0003641902064979414	-0.01424255039501466	-0.03427395255210449	-0.01611029480178346	0.1584994796029716	-0.0167167434044957	0.06158338836094123	-0.1355008416555396	0.1673651762668817	0.1673651762668822	0.01885505004762606	0.0001759351336676018	0.03184587634775519	-0.007068645626220039	0.06111534024824791	-0.07097407510014135	-0.01978503263632594	-0.2458293368013006	0.1959421004564847	0.01006894736201044	0.01680860026699051	20.07835863995741	-10.15431921447138	3.752657685212023	0.6684716564004831	-632.1615063972744	-95.39059508921899	-23.21635282639532	-0.744894460845253	-1.622800598503256	-0.7938334556848646	7.766744782503253	-0.7921422569101438	2.941712509596713	-6.385498103894975	8.226938733802921	8.226938733802927	0.984278014870118	-0.05633434682775846	1.643551579889471	-0.2892047859095734	-6.226947076509078e-08	1.199284242201194e-07	1.956283557630923e-07	4.672979399283703e-08	-1.20624840614515e-07	-9.005560749148714e-08	-1.636906880847084e-08
0.03	-0.03714325945291589	0.05590575635838076	0.9199788359745132	0.3121485871459838	-0.2960165314633151	-0.3002220170836901	-0.3909997747389508	0.2536936355030747	0.2536936355030855	-0.1741087018039902	-0.1745294175824456	-8.799768992717907e-05	0.0002783239493442527	-0.02096876485468275	-0.05019317645047947	-0.02388865917803093	0.2337543891922806	-0.02456501683540134	0.09086523485963595	-0.1986741790789816	0.2475446217512661	0.2475446217512666	0.02802743341994765	0.0001633240860932907	0.04776055088051639	-0.01006729324849782	0.05440895215734971	-0.06282896447438734	-0.01890766357848019	-0.2394516379360979	0.1900125268437406	0.006832685821935597	0.02255630403097926	17.9953195017648	-8.486650855731867	3.603939592957158	1.428605755134222	-633.5739794646838	-91.03859661567327	-23.23981388251948	-0.6281565532531235	-1.562737169421819	-0.767529485273285	7.345988173551658	-0.7728209436725161	2.898749450768815	-6.219532551300575	7.855930372887978	7.855930372887961	0.8767631008249388	0.02662140705896562	1.556361208543866	-0.2996390264454669	-8.152136977373148e-08	1.082020691180728e-07	2.489111228665172e-07	6.292840292095118e-08	-1.94607280805989e-07	-1.243453147747549e-07	-2.381071044638947e-08
